<?xml version="1.0" encoding="utf-8"?>
<!-- Generator: Adobe Illustrator 25.0.0, SVG Export Plug-In . SVG Version: 6.00 Build 0)  -->
<svg version="1.1" id="Layer_1" xmlns="http://www.w3.org/2000/svg" xmlns:xlink="http://www.w3.org/1999/xlink" x="0px" y="0px"
	 viewBox="0 0 512 512" style="enable-background:new 0 0 512 512;" xml:space="preserve">
<style type="text/css">
	.st0{fill:#47A8DF;}
</style>
<path class="st0" d="M315.4,216.6V110.9c0-9-7.3-16.2-16.2-16.2H157.1V42.3c0-14.3-17.3-21.6-27.6-11.6L4.9,152.1
	c-6.5,6.4-6.5,16.9,0,23.3l124.7,121.4c10.3,10,27.6,2.7,27.6-11.6v-52.3h142.1C308.2,232.8,315.4,225.6,315.4,216.6L315.4,216.6z"
	/>
<path class="st0" d="M507.1,336.6L382.4,215.2c-10.3-10-27.6-2.7-27.6,11.6v52.3H212.8c-9,0-16.2,7.3-16.2,16.2v105.7
	c0,9,7.3,16.2,16.2,16.2h142.1v52.3c0,14.4,17.3,21.6,27.6,11.6l124.7-121.4C513.6,353.5,513.6,343,507.1,336.6L507.1,336.6z"/>
</svg>
